<?xml version="1.0" encoding="utf-8"?>
<!-- Generator: Adobe Illustrator 16.0.0, SVG Export Plug-In . SVG Version: 6.00 Build 0)  -->
<!DOCTYPE svg PUBLIC "-//W3C//DTD SVG 1.1//EN" "http://www.w3.org/Graphics/SVG/1.1/DTD/svg11.dtd">
<svg version="1.1" id="Layer_1" xmlns="http://www.w3.org/2000/svg" xmlns:xlink="http://www.w3.org/1999/xlink" x="0px" y="0px"
	 width="25.472px" height="22.46px" viewBox="0 0 25.472 22.46" enable-background="new 0 0 25.472 22.46" xml:space="preserve">
<g>
	<g>
		<path fill="#F7FBFC" d="M23.147,14.334H5.904c-1.042,0-1.887-0.846-1.887-1.888V2.604c0-1.043,0.845-1.888,1.887-1.888h17.244
			c1.043,0,1.889,0.845,1.889,1.888v9.843C25.036,13.488,24.19,14.334,23.147,14.334z"/>
		<path fill="#022D41" d="M24.337,14.77H4.714c-0.625,0-1.133-0.509-1.133-1.135V1.414c0-0.625,0.508-1.134,1.133-1.134h19.623
			c0.627,0,1.135,0.509,1.135,1.134v12.221C25.472,14.261,24.964,14.77,24.337,14.77z M4.714,1.152
			c-0.144,0-0.262,0.117-0.262,0.262v12.221c0,0.146,0.118,0.262,0.262,0.262h19.623c0.146,0,0.264-0.116,0.264-0.262V1.414
			c0-0.145-0.117-0.262-0.264-0.262H4.714z"/>
	</g>
	<g>
		<path fill="#F7FBFC" d="M20.743,4.338H1.073c-0.302,0-0.548,0.246-0.548,0.55v12.39c0,0.369,0.299,0.669,0.669,0.669h0.612
			c0.513,0,0.985,0.281,1.228,0.733l1.586,2.941c0.245,0.453,0.879,0.496,1.181,0.08l2.314-3.181
			c0.262-0.36,0.682-0.574,1.128-0.574h11.453c0.421,0,0.763-0.342,0.763-0.763V5.055C21.459,4.662,21.136,4.338,20.743,4.338z"/>
		<path fill="#022D41" d="M5.237,22.513c-0.027,0-0.055-0.002-0.084-0.004c-0.421-0.027-0.793-0.267-0.994-0.639l-1.587-2.942
			c-0.152-0.282-0.447-0.457-0.767-0.457H1.193C0.536,18.471,0,17.935,0,17.277V4.888c0-0.592,0.482-1.072,1.073-1.072h19.67
			c0.683,0,1.239,0.556,1.239,1.239v12.129c0,0.709-0.577,1.287-1.286,1.287H9.244c-0.278,0-0.542,0.133-0.705,0.358l-2.314,3.18
			C5.991,22.329,5.627,22.513,5.237,22.513z M1.073,4.861c-0.014,0-0.025,0.013-0.025,0.026v12.39c0,0.08,0.065,0.146,0.146,0.146
			h0.612c0.707,0,1.353,0.386,1.688,1.008l1.586,2.942c0.041,0.075,0.107,0.09,0.143,0.093c0.038,0.002,0.105-0.004,0.155-0.073
			l2.314-3.181c0.359-0.493,0.939-0.789,1.551-0.789h11.453c0.132,0,0.239-0.108,0.239-0.239V5.055c0-0.104-0.088-0.193-0.193-0.193
			H1.073z"/>
	</g>
	<g>
		<path fill="#022D41" d="M9.563,9.587c0,0.079-0.015,0.152-0.045,0.221c-0.03,0.066-0.071,0.128-0.121,0.179
			c-0.05,0.052-0.109,0.092-0.177,0.12c-0.068,0.028-0.142,0.044-0.219,0.044c-0.161,0-0.294-0.054-0.4-0.162
			c-0.105-0.106-0.158-0.24-0.158-0.401c0-0.357,0.069-0.692,0.206-1.007c0.138-0.314,0.324-0.59,0.56-0.824
			c0.236-0.236,0.511-0.422,0.826-0.558c0.314-0.136,0.648-0.204,1.001-0.204c0.354,0,0.687,0.069,1.002,0.21
			c0.314,0.139,0.588,0.325,0.824,0.562s0.422,0.512,0.561,0.825c0.136,0.314,0.206,0.646,0.206,0.996
			c0,0.708-0.256,1.321-0.767,1.843l-0.841,0.777c-0.286,0.286-0.43,0.598-0.43,0.938c0,0.161-0.052,0.294-0.157,0.398
			c-0.105,0.106-0.238,0.158-0.399,0.158c-0.161,0-0.295-0.052-0.402-0.158c-0.107-0.104-0.161-0.237-0.161-0.398
			c0-0.643,0.255-1.219,0.767-1.73l0.841-0.782c0.286-0.297,0.429-0.645,0.429-1.045c0-0.2-0.039-0.389-0.118-0.567
			c-0.079-0.179-0.185-0.335-0.319-0.469c-0.133-0.134-0.29-0.24-0.469-0.318c-0.178-0.079-0.368-0.118-0.567-0.118
			c-0.204,0-0.395,0.037-0.573,0.115c-0.179,0.077-0.335,0.181-0.469,0.313C9.86,8.675,9.755,8.83,9.679,9.009
			C9.602,9.188,9.563,9.381,9.563,9.587z M11.796,14.8c0,0.21-0.074,0.391-0.221,0.539c-0.149,0.148-0.328,0.222-0.539,0.222
			s-0.391-0.073-0.538-0.222c-0.148-0.148-0.223-0.329-0.223-0.539c0-0.211,0.075-0.391,0.223-0.538
			c0.147-0.148,0.327-0.223,0.538-0.223s0.39,0.074,0.539,0.223C11.723,14.409,11.796,14.589,11.796,14.8z"/>
	</g>
</g>
</svg>
