<?xml version="1.0" encoding="utf-8"?>
<!-- Generator: Adobe Illustrator 16.0.0, SVG Export Plug-In . SVG Version: 6.00 Build 0)  -->
<!DOCTYPE svg PUBLIC "-//W3C//DTD SVG 1.1//EN" "http://www.w3.org/Graphics/SVG/1.1/DTD/svg11.dtd">
<svg version="1.1" id="Layer_1" xmlns="http://www.w3.org/2000/svg" xmlns:xlink="http://www.w3.org/1999/xlink" x="0px" y="0px"
	 width="32.795px" height="30.753px" viewBox="0 0 32.795 30.753" enable-background="new 0 0 32.795 30.753" xml:space="preserve">
<g>
	<g>
		<g>
			<line fill="#FFFFFF" x1="12.479" y1="22.648" x2="28.151" y2="22.648"/>
			<path fill="#FFFFFF" d="M28.151,23.071H12.479c-0.233,0-0.423-0.19-0.423-0.423c0-0.233,0.19-0.424,0.423-0.424h15.672
				c0.233,0,0.423,0.19,0.423,0.424C28.574,22.881,28.385,23.071,28.151,23.071z"/>
		</g>
		<g>
			<path fill="#FFFFFF" d="M7.271,25.698c-1.681,0-3.05-1.369-3.05-3.05c0-1.683,1.369-3.05,3.05-3.05
				c1.681,0,3.049,1.367,3.049,3.05C10.32,24.329,8.951,25.698,7.271,25.698z M7.271,20.444c-1.216,0-2.204,0.989-2.204,2.204
				s0.988,2.203,2.204,2.203c1.215,0,2.204-0.988,2.204-2.203S8.485,20.444,7.271,20.444z"/>
		</g>
		<g>
			<path fill="#FFFFFF" d="M7.271,18.426c-1.681,0-3.05-1.367-3.05-3.05c0-1.681,1.369-3.048,3.05-3.048
				c1.681,0,3.049,1.367,3.049,3.048C10.32,17.059,8.951,18.426,7.271,18.426z M7.271,13.173c-1.216,0-2.204,0.988-2.204,2.203
				s0.988,2.204,2.204,2.204c1.215,0,2.204-0.989,2.204-2.204S8.485,13.173,7.271,13.173z"/>
		</g>
	</g>
	<g>
		<g>
			<line fill="#FFFFFF" x1="12.479" y1="15.376" x2="28.151" y2="15.376"/>
			<path fill="#FFFFFF" d="M28.151,15.799H12.479c-0.233,0-0.423-0.189-0.423-0.423s0.19-0.423,0.423-0.423h15.672
				c0.233,0,0.423,0.189,0.423,0.423S28.385,15.799,28.151,15.799z"/>
		</g>
	</g>
	<g>
		<g>
			<line fill="#FFFFFF" x1="12.479" y1="8.104" x2="28.151" y2="8.104"/>
			<path fill="#FFFFFF" d="M28.151,8.527H12.479c-0.233,0-0.423-0.188-0.423-0.424c0-0.232,0.19-0.422,0.423-0.422h15.672
				c0.233,0,0.423,0.189,0.423,0.422C28.574,8.339,28.385,8.527,28.151,8.527z"/>
		</g>
		<g>
			<path fill="#FFFFFF" d="M7.271,11.154c-1.681,0-3.05-1.368-3.05-3.051c0-1.681,1.369-3.048,3.05-3.048
				c1.681,0,3.049,1.368,3.049,3.048C10.32,9.786,8.951,11.154,7.271,11.154z M7.271,5.901c-1.216,0-2.204,0.989-2.204,2.203
				c0,1.217,0.988,2.206,2.204,2.206c1.215,0,2.204-0.989,2.204-2.206C9.474,6.89,8.485,5.901,7.271,5.901z"/>
		</g>
	</g>
</g>
</svg>
