<?xml version="1.0" encoding="utf-8"?>
<!-- Generator: Adobe Illustrator 21.0.0, SVG Export Plug-In . SVG Version: 6.00 Build 0)  -->
<svg version="1.1" id="Layer_1" xmlns="http://www.w3.org/2000/svg" xmlns:xlink="http://www.w3.org/1999/xlink" x="0px" y="0px"
	 viewBox="0 0 32.8 30.8" style="enable-background:new 0 0 32.8 30.8;" xml:space="preserve">
<style type="text/css">
	.st0{fill:#FE6771;}
	.st1{fill:#FFFFFF;}
</style>
<g>
	<circle class="st0" cx="8.1" cy="12.4" r="2.9"/>
	<circle class="st0" cx="16.9" cy="18.3" r="2.9"/>
	<circle class="st0" cx="24.7" cy="12.4" r="2.9"/>
	<g>
		<path class="st1" d="M16.4,21.8c-0.2,0-0.3,0-0.5,0v2.6c0,0.3,0.2,0.5,0.5,0.5c0.3,0,0.5-0.2,0.5-0.5v-2.6
			C16.7,21.8,16.6,21.8,16.4,21.8z"/>
		<path class="st1" d="M16.4,14.8c0.2,0,0.3,0,0.5,0V6.4c0-0.3-0.2-0.5-0.5-0.5c-0.3,0-0.5,0.2-0.5,0.5v8.4
			C16.1,14.9,16.2,14.8,16.4,14.8z"/>
		<g>
			<path class="st1" d="M19.9,18.3c0,1.9-1.6,3.5-3.5,3.5s-3.5-1.6-3.5-3.5s1.6-3.5,3.5-3.5S19.9,16.4,19.9,18.3z M13.9,18.3
				c0,1.4,1.1,2.5,2.5,2.5s2.5-1.1,2.5-2.5s-1.1-2.5-2.5-2.5S13.9,16.9,13.9,18.3z"/>
		</g>
	</g>
	<g>
		<path class="st1" d="M24.7,15.9c-0.2,0-0.3,0-0.5,0v8.4c0,0.3,0.2,0.5,0.5,0.5c0.3,0,0.5-0.2,0.5-0.5v-8.4
			C25,15.9,24.9,15.9,24.7,15.9z"/>
		<path class="st1" d="M24.7,9c0.2,0,0.3,0,0.5,0V6.4C25.2,6.2,25,6,24.7,6c-0.3,0-0.5,0.2-0.5,0.5V9C24.4,9,24.5,9,24.7,9z"/>
		<g>
			<path class="st1" d="M28.2,12.4c0,1.9-1.6,3.5-3.5,3.5s-3.5-1.6-3.5-3.5S22.8,9,24.7,9S28.2,10.5,28.2,12.4z M22.2,12.4
				c0,1.4,1.1,2.5,2.5,2.5s2.5-1.1,2.5-2.5s-1.1-2.5-2.5-2.5S22.2,11.1,22.2,12.4z"/>
		</g>
	</g>
	<g>
		<path class="st1" d="M8.1,15.9c-0.2,0-0.3,0-0.5,0v8.4c0,0.3,0.2,0.5,0.5,0.5c0.3,0,0.5-0.2,0.5-0.5v-8.4
			C8.4,15.9,8.3,15.9,8.1,15.9z"/>
		<path class="st1" d="M8.1,9c0.2,0,0.3,0,0.5,0V6.4C8.6,6.2,8.4,6,8.1,6C7.8,6,7.6,6.2,7.6,6.4V9C7.8,9,7.9,9,8.1,9z"/>
		<g>
			<path class="st1" d="M11.6,12.4c0,1.9-1.6,3.5-3.5,3.5s-3.5-1.6-3.5-3.5S6.2,9,8.1,9S11.6,10.5,11.6,12.4z M5.6,12.4
				c0,1.4,1.1,2.5,2.5,2.5s2.5-1.1,2.5-2.5S9.5,9.9,8.1,9.9S5.6,11.1,5.6,12.4z"/>
		</g>
	</g>
</g>
</svg>
