<?xml version="1.0" encoding="utf-8"?>
<!-- Generator: Adobe Illustrator 16.0.0, SVG Export Plug-In . SVG Version: 6.00 Build 0)  -->
<!DOCTYPE svg PUBLIC "-//W3C//DTD SVG 1.1//EN" "http://www.w3.org/Graphics/SVG/1.1/DTD/svg11.dtd">
<svg version="1.1" id="Layer_1" xmlns="http://www.w3.org/2000/svg" xmlns:xlink="http://www.w3.org/1999/xlink" x="0px" y="0px"
	 width="32.795px" height="30.753px" viewBox="0 0 32.795 30.753" enable-background="new 0 0 32.795 30.753" xml:space="preserve">
<g>
	<g>
		<g>
			<line fill="#FFFFFF" x1="12.281" y1="22.688" x2="22.077" y2="22.688"/>
			<path fill="#FFFFFF" d="M22.076,23.109h-9.795c-0.233,0-0.422-0.188-0.422-0.422s0.189-0.422,0.422-0.422h9.795
				c0.232,0,0.421,0.188,0.421,0.422S22.309,23.109,22.076,23.109z"/>
		</g>
	</g>
	<g>
		<g>
			<line fill="#FFFFFF" x1="12.281" y1="15.432" x2="25.036" y2="15.432"/>
			<path fill="#FFFFFF" d="M25.036,15.853H12.281c-0.233,0-0.422-0.188-0.422-0.421c0-0.233,0.189-0.422,0.422-0.422h12.755
				c0.232,0,0.422,0.188,0.422,0.422C25.458,15.664,25.269,15.853,25.036,15.853z"/>
		</g>
	</g>
	<g>
		<g>
			<line fill="#FFFFFF" x1="12.281" y1="8.175" x2="27.919" y2="8.175"/>
			<path fill="#FFFFFF" d="M27.919,8.597H12.281c-0.233,0-0.422-0.188-0.422-0.422s0.189-0.422,0.422-0.422h15.638
				c0.233,0,0.423,0.188,0.423,0.422S28.152,8.597,27.919,8.597z"/>
		</g>
	</g>
	<g>
		<path fill="#FFFFFF" d="M8.442,10.539l-0.53-1.325H5.886l-0.518,1.325H4.454l1.984-4.791H7.38l1.982,4.791H8.442z"/>
	</g>
	<g>
		<path fill="#FFFFFF" d="M5.157,12.855h1.575c0.729,0,1.256,0.096,1.583,0.287c0.324,0.192,0.487,0.494,0.487,0.907
			c0,0.279-0.08,0.511-0.24,0.695c-0.159,0.185-0.388,0.302-0.689,0.35v0.032c0.373,0.063,0.646,0.188,0.822,0.374
			c0.175,0.186,0.262,0.438,0.262,0.756c0,0.429-0.166,0.764-0.497,1.006c-0.333,0.242-0.795,0.364-1.388,0.364H5.157V12.855z
			 M6.023,14.826h0.834c0.363,0,0.627-0.051,0.794-0.155c0.166-0.102,0.249-0.278,0.249-0.525c0-0.224-0.089-0.387-0.27-0.486
			c-0.179-0.101-0.465-0.15-0.857-0.15H6.023V14.826z M6.023,15.459v1.513h0.921c0.362,0,0.637-0.064,0.821-0.188
			c0.186-0.125,0.278-0.323,0.278-0.592c0-0.248-0.094-0.432-0.283-0.552c-0.188-0.12-0.475-0.181-0.86-0.181H6.023z"/>
	</g>
	<g>
		<path fill="#FFFFFF" d="M7.51,20.77c-0.497,0-0.889,0.158-1.175,0.477c-0.285,0.317-0.427,0.756-0.427,1.315
			c0,0.585,0.137,1.027,0.411,1.328c0.275,0.299,0.671,0.449,1.191,0.449c0.226,0,0.443-0.02,0.653-0.061
			c0.21-0.04,0.429-0.092,0.656-0.155v0.67c-0.416,0.142-0.887,0.212-1.414,0.212c-0.776,0-1.373-0.212-1.787-0.634
			c-0.417-0.424-0.625-1.029-0.625-1.816c0-0.497,0.101-0.93,0.304-1.303c0.202-0.372,0.493-0.657,0.875-0.855
			C6.554,20.199,7.003,20.1,7.518,20.1c0.542,0,1.042,0.103,1.501,0.307l-0.312,0.649c-0.179-0.075-0.368-0.143-0.567-0.2
			C7.941,20.798,7.73,20.77,7.51,20.77z"/>
	</g>
</g>
</svg>
