<?xml version="1.0" encoding="utf-8"?>
<!-- Generator: Adobe Illustrator 16.0.0, SVG Export Plug-In . SVG Version: 6.00 Build 0)  -->
<!DOCTYPE svg PUBLIC "-//W3C//DTD SVG 1.1//EN" "http://www.w3.org/Graphics/SVG/1.1/DTD/svg11.dtd">
<svg version="1.1" id="Layer_1" xmlns="http://www.w3.org/2000/svg" xmlns:xlink="http://www.w3.org/1999/xlink" x="0px" y="0px"
	 width="27.249px" height="27.646px" viewBox="0 0 27.249 27.646" enable-background="new 0 0 27.249 27.646" xml:space="preserve">
<g>
	<g>
		<path fill="#FFFFFF" d="M23.239,25.314H4.009c-1.104,0-2-0.896-2-2v-11.05c0-1.104,0.896-2,2-2h19.229c1.104,0,2,0.896,2,2v11.05
			C25.239,24.419,24.343,25.314,23.239,25.314z"/>
		<path fill="#022D41" d="M24.467,25.796H2.781c-0.691,0-1.253-0.562-1.253-1.253V11.036c0-0.691,0.562-1.253,1.253-1.253h21.687
			c0.691,0,1.254,0.563,1.254,1.253v13.507C25.721,25.234,25.159,25.796,24.467,25.796z M2.781,10.747
			c-0.159,0-0.289,0.13-0.289,0.289v13.507c0,0.159,0.13,0.289,0.289,0.289h21.687c0.159,0,0.289-0.13,0.289-0.289V11.036
			c0-0.159-0.13-0.289-0.289-0.289H2.781z"/>
	</g>
	<g>
		<path fill="#022D41" d="M19.878,10.761H7.371V3.027c0-0.649,0.562-1.178,1.253-1.178h10.001c0.691,0,1.254,0.528,1.254,1.178
			V10.761z M8.334,9.854h10.58V3.027c0-0.15-0.13-0.272-0.29-0.272H8.624c-0.159,0-0.289,0.122-0.289,0.272V9.854z"/>
	</g>
	<g>
		<path fill="#022D41" d="M21.615,21.788h-1.157v-2.893c0-0.106-0.087-0.193-0.193-0.193H6.768c-0.106,0-0.192,0.087-0.192,0.193
			v2.507H5.418v-2.507c0-0.744,0.605-1.35,1.35-1.35h13.496c0.745,0,1.351,0.605,1.351,1.35V21.788z"/>
	</g>
	<g>
		<path fill="#022D41" d="M21.515,15.708c-0.31,0.149-0.626,0.168-0.949,0.056c-0.322-0.113-0.559-0.324-0.708-0.633
			c-0.149-0.309-0.168-0.625-0.056-0.948s0.323-0.559,0.633-0.709c0.31-0.149,0.625-0.167,0.949-0.056
			c0.322,0.113,0.559,0.324,0.708,0.633s0.168,0.625,0.056,0.948C22.035,15.322,21.825,15.558,21.515,15.708z"/>
	</g>
</g>
</svg>
