<?xml version="1.0" encoding="utf-8"?>
<!-- Generator: Adobe Illustrator 16.0.0, SVG Export Plug-In . SVG Version: 6.00 Build 0)  -->
<!DOCTYPE svg PUBLIC "-//W3C//DTD SVG 1.1//EN" "http://www.w3.org/Graphics/SVG/1.1/DTD/svg11.dtd">
<svg version="1.1" id="Layer_1" xmlns="http://www.w3.org/2000/svg" xmlns:xlink="http://www.w3.org/1999/xlink" x="0px" y="0px"
	 width="32.795px" height="30.753px" viewBox="0 0 32.795 30.753" enable-background="new 0 0 32.795 30.753" xml:space="preserve">
<g>
	<g>
		<path fill="#FFFFFF" d="M29.614,17.722H7.673c-1.104,0-2-0.896-2-2V2.915c0-1.104,0.896-2,2-2h21.941c1.104,0,2,0.896,2,2v12.807
			C31.614,16.825,30.718,17.722,29.614,17.722z"/>
		<path fill="#8A9497" d="M30.753,18.259H6.535c-0.771,0-1.398-0.627-1.398-1.398V1.776c0-0.771,0.627-1.399,1.398-1.399h24.218
			c0.771,0,1.4,0.628,1.4,1.399V16.86C32.153,17.632,31.524,18.259,30.753,18.259z M6.535,1.454c-0.178,0-0.322,0.145-0.322,0.322
			V16.86c0,0.178,0.145,0.322,0.322,0.322h24.218c0.178,0,0.322-0.145,0.322-0.322V1.776c0-0.178-0.145-0.322-0.322-0.322H6.535z"/>
	</g>
	<g>
		<path fill="#FFFFFF" d="M25.12,22.216H3.179c-1.104,0-2-0.896-2-2V7.409c0-1.104,0.896-1.999,2-1.999H25.12
			c1.104,0,2,0.896,2,1.999v12.807C27.12,21.319,26.224,22.216,25.12,22.216z"/>
		<path fill="#8A9497" d="M26.259,22.753H2.041c-0.771,0-1.399-0.627-1.399-1.398V6.271c0-0.771,0.628-1.399,1.399-1.399h24.218
			c0.771,0,1.398,0.628,1.398,1.399v15.084C27.657,22.126,27.03,22.753,26.259,22.753z M2.041,5.948
			c-0.178,0-0.322,0.145-0.322,0.322v15.084c0,0.178,0.145,0.322,0.322,0.322h24.218c0.178,0,0.322-0.145,0.322-0.322V6.271
			c0-0.178-0.145-0.322-0.322-0.322H2.041z"/>
	</g>
	<g>
		<circle fill="#FFFFFF" cx="14.556" cy="18.956" r="7.443"/>
		<path fill="#8A9497" d="M14.556,26.938c-4.401,0-7.982-3.582-7.982-7.982s3.581-7.982,7.982-7.982c4.4,0,7.982,3.582,7.982,7.982
			S18.957,26.938,14.556,26.938z M14.556,12.05c-3.808,0-6.906,3.098-6.906,6.906s3.099,6.906,6.906,6.906
			c3.809,0,6.904-3.098,6.904-6.906S18.365,12.05,14.556,12.05z"/>
	</g>
	<g>
		<line fill="#FFFFFF" x1="19.74" y1="24.298" x2="25.278" y2="29.839"/>
		<path fill="#8A9497" d="M25.28,30.376c-0.139,0-0.275-0.053-0.381-0.158l-5.541-5.539c-0.211-0.211-0.211-0.551,0-0.762
			s0.551-0.211,0.762,0l5.539,5.541c0.211,0.209,0.211,0.551,0,0.76C25.556,30.323,25.417,30.376,25.28,30.376z"/>
	</g>
</g>
</svg>
